
<svg width="114" height="38" viewBox="0 0 114 38" fill="none" xmlns="http://www.w3.org/2000/svg">
	<g clip-path="url(#clip0_0_3)">
		<path d="M10.8332 30.2742C10.8979 30.3416 10.8332 30.4513 10.7426 30.4281C10.5696 30.3838 10.398 30.3355 10.2277 30.2823C8.9411 29.8846 7.76414 29.2477 6.75881 28.3671C6.70296 28.3187 6.75813 28.2288 6.82624 28.2574C7.56525 28.57 8.35126 28.8036 9.17745 28.9535C9.48667 29.0093 9.77001 29.1626 9.98729 29.3894L10.8332 30.2742Z" fill="white"/>
		<path d="M13.8647 29.1673L15.184 30.5465C15.2385 30.6038 15.2044 30.6998 15.1254 30.708C15.0021 30.7209 14.8795 30.7325 14.7576 30.742C14.1841 30.789 13.6168 30.7986 13.0596 30.772C12.8457 30.7618 12.6441 30.6651 12.4963 30.5104L11.3132 29.2735C11.2696 29.2286 11.301 29.153 11.3636 29.1523C11.6695 29.1482 12.3042 29.1346 12.6033 29.1108C12.8818 29.089 13.1597 29.0583 13.4383 29.0209C13.5963 28.9984 13.755 29.0522 13.8647 29.1673Z" fill="white"/>
		<path d="M28.6197 8.78839C28.5278 8.46282 28.4208 8.1427 28.2976 7.82939C28.286 7.80078 28.3241 7.77762 28.3439 7.80146C28.8983 8.45669 29.3492 9.17459 29.6945 9.9422C29.7047 9.96468 29.6748 9.98511 29.6571 9.9674L28.7491 9.01725C28.6878 8.95254 28.6436 8.87421 28.6197 8.78839Z" fill="white"/>
		<path d="M17.0832 28.256L18.5306 29.7694C18.5864 29.828 18.5633 29.9261 18.4863 29.9519C18.3862 29.986 18.286 30.0187 18.1859 30.0507C17.7112 30.2053 17.2344 30.3354 16.759 30.4396C16.6343 30.4669 16.5049 30.426 16.4171 30.334L15.0344 28.888C14.9752 28.8261 15.0051 28.7253 15.0882 28.7048C15.659 28.5645 16.2264 28.3922 16.7883 28.1879C16.8918 28.1504 17.0076 28.1763 17.0832 28.256Z" fill="white"/>
		<path d="M21.3614 28.4528C21.4268 28.5209 21.4104 28.6333 21.328 28.6796C21.2483 28.7239 21.1693 28.7668 21.0896 28.8104C20.6796 29.0324 20.2648 29.2347 19.8473 29.4179C19.756 29.4581 19.6491 29.4356 19.5796 29.3634L18.124 27.8425C18.058 27.7737 18.0798 27.662 18.1663 27.6218C18.6648 27.3923 19.1573 27.1382 19.6416 26.8597C19.7151 26.8174 19.8084 26.8297 19.867 26.8917L21.3614 28.4528Z" fill="white"/>
		<path d="M23.8849 26.8154C23.9272 26.8597 23.9224 26.9312 23.8747 26.9693C23.7882 27.0381 23.701 27.1062 23.6139 27.1723C23.2522 27.4515 22.8823 27.7151 22.5077 27.9617C22.4437 28.0039 22.3586 27.9937 22.3054 27.9385L20.7559 26.3182C20.7103 26.2705 20.7191 26.1942 20.7736 26.1574C21.2388 25.8448 21.6945 25.5111 22.1393 25.1548C22.1897 25.1146 22.2625 25.1187 22.3075 25.1657L23.8849 26.8154Z" fill="white"/>
		<path d="M26.0426 24.7932C26.0855 24.8381 26.0869 24.9089 26.0453 24.9546C25.9704 25.0363 25.8935 25.1174 25.8165 25.1977C25.5556 25.4709 25.0611 25.9381 24.8527 26.1343C24.7989 26.1847 24.7151 26.1819 24.664 26.1288L23.1145 24.5078C23.0621 24.4526 23.0634 24.3661 23.1186 24.3137C23.3536 24.0902 23.9475 23.5202 24.2962 23.1503C24.3432 23.0999 24.4229 23.1006 24.4699 23.1503L26.0426 24.7932Z" fill="white"/>
		<path d="M27.9536 22.5169C27.8705 22.6429 27.7861 22.7676 27.7002 22.8922C27.6539 22.959 27.6083 23.0257 27.5592 23.0911C27.1261 22.4148 26.62 21.7057 26.0479 20.9728C26.1085 20.8857 26.1677 20.7978 26.2256 20.7099L27.9536 22.5169Z" fill="white"/>
		<path d="M29.3113 19.6604C29.3781 19.7299 29.3972 19.8334 29.3583 19.9219C29.3154 20.0193 29.2718 20.1167 29.2269 20.2135C29.03 20.6467 28.8114 21.0778 28.5717 21.5028C28.5437 21.5518 28.4756 21.5607 28.4361 21.5198L26.7939 19.8014C27.1209 19.2429 27.4131 18.6755 27.6705 18.102C27.6937 18.0502 27.7611 18.0387 27.7999 18.0795L29.3113 19.6604Z" fill="white"/>
		<path d="M30.3103 16.4271C30.3614 16.4802 30.3845 16.5544 30.3709 16.6273C30.3457 16.7663 30.3171 16.9052 30.2871 17.0448C30.1775 17.5598 30.0365 18.0774 29.8648 18.593C29.8485 18.6407 29.7865 18.655 29.7518 18.6182L28.2302 17.0265C28.1764 16.9699 28.1593 16.8882 28.1852 16.8146C28.4073 16.1846 28.5878 15.5518 28.7247 14.9191C28.7362 14.8666 28.8003 14.8483 28.8377 14.8871L30.3103 16.4271Z" fill="white"/>
		<path d="M30.4587 15.0798L29.0726 13.6318C28.9997 13.5562 28.9657 13.452 28.9759 13.3471C29.0597 12.5318 29.0706 11.7267 29.0045 10.9407C28.9997 10.8835 29.0685 10.8522 29.1087 10.8937L30.2789 12.1177C30.3647 12.2076 30.4233 12.3206 30.443 12.4426C30.4743 12.6305 30.5002 12.8206 30.5213 13.0113C30.5935 13.6726 30.6072 14.3517 30.5649 15.0396C30.5622 15.0941 30.4961 15.1186 30.4587 15.0798Z" fill="white"/>
		<path d="M24.3777 22.0544L24.375 22.0572C23.8485 22.6783 23.2709 23.2791 22.6429 23.8485C16.5367 29.3941 8.11067 30.063 3.82374 25.3415C0.0646808 21.203 0.737621 14.2945 5.07631 8.91712C5.25068 8.70189 5.43049 8.4887 5.61575 8.27823C5.86845 7.99149 6.13408 7.70678 6.40925 7.43093C6.42015 7.42003 6.429 7.41118 6.43854 7.40164C7.20139 7.7204 8.02417 8.13929 8.8885 8.63922C11.4168 10.0989 14.3054 12.2553 17.1341 14.663C18.751 16.0395 20.3428 17.5598 21.7711 19.0725C22.7274 20.084 23.6108 21.0941 24.3777 22.0544Z" fill="url(#paint0_radial_0_3)"/>
		<path d="M25.6144 20.43C24.8195 19.4478 23.9068 18.4275 22.8865 17.3875C21.5263 15.996 19.9741 14.5704 18.2522 13.1503C15.508 10.8876 12.7781 8.96551 10.3036 7.50997C9.43724 6.99982 8.60356 6.54688 7.81006 6.15728C13.8468 1.16676 21.8117 0.714504 25.9386 5.25957C29.4102 9.08402 29.1017 15.2699 25.6144 20.43Z" fill="url(#paint1_radial_0_3)"/>
		<path d="M22.0112 18.845C21.9328 18.7619 21.8538 18.6795 21.7748 18.5964L21.3348 19.0922C20.8737 19.665 20.3588 20.2106 19.801 20.7174C17.6616 22.6613 15.087 23.8627 12.5525 24.1038C10.0549 24.3402 7.89714 23.6094 6.47702 22.0462C3.55368 18.8252 4.66458 13.0249 8.93243 9.04648L9.42419 8.57038C9.29887 8.49477 9.17559 8.42258 9.05367 8.35242L8.85002 8.23459L8.64773 8.41032L8.87249 8.65211L8.63478 8.42189C3.97529 12.653 2.78743 18.9642 5.9873 22.4903C7.35974 24.0017 9.34314 24.8081 11.6412 24.8081C11.96 24.8081 12.2849 24.7925 12.6159 24.7618C15.2906 24.5077 18.0015 23.245 20.2464 21.2064C20.9037 20.6091 21.5051 19.9579 22.033 19.2748L22.206 19.05L22.0112 18.845Z" fill="#0E072D"/>
		<path d="M22.8918 7.13936C20.04 3.99943 14.6653 4.04165 10.1127 7.2388L9.69385 7.53372L10.1352 7.79391C11.2114 8.42871 12.3325 9.14796 13.4686 9.93329C14.5195 10.6634 15.6025 11.4631 16.6828 12.3117C16.8258 12.4241 16.9709 12.5379 17.1153 12.653C17.3959 12.8764 17.6997 13.1223 18.0436 13.407C18.0899 13.4437 18.1349 13.4826 18.1839 13.5234C18.4427 13.7366 18.7036 13.9559 18.9815 14.195C19.9003 14.9817 20.7878 15.7881 21.6195 16.5946C21.9566 16.9174 22.3033 17.2621 22.6507 17.6183L22.9599 17.9343L23.1751 17.5481C25.2982 13.7537 25.1871 9.66765 22.8918 7.13936ZM22.8073 16.8371C22.5614 16.5884 22.3169 16.3494 22.0785 16.1192C21.2374 15.3045 20.3397 14.4879 19.4106 13.693C19.13 13.4526 18.8657 13.2306 18.6069 13.016C18.5579 12.9751 18.5088 12.9343 18.4625 12.8954C18.1158 12.6101 17.8093 12.3615 17.528 12.138C17.3823 12.0216 17.2372 11.9065 17.0914 11.7927C15.9996 10.9359 14.9071 10.1267 13.8439 9.39044C12.8522 8.70388 11.8714 8.06703 10.9192 7.49286C15.0971 4.77453 19.8636 4.78884 22.4027 7.58413C24.427 9.81341 24.5721 13.4083 22.8073 16.8371Z" fill="#0E072D"/>
		<path d="M29.8887 28.1436C29.1183 29.0502 27.374 29.0093 25.0514 28.2009C24.8137 28.1178 24.8927 27.7622 25.1434 27.7874C26.336 27.908 27.9782 27.406 28.1975 26.6336C28.7764 24.5937 23.5434 18.2076 18.0046 13.4915C12.0013 8.3791 5.71802 4.39663 3.20471 5.80517C2.3574 6.2799 2.6353 8.17885 3.2013 9.68411C3.29189 9.92386 3.01263 10.0465 2.82192 9.87482C0.139698 7.45346 -0.792746 4.48653 0.732948 2.87638C3.95598 -0.525781 14.3648 6.55575 19.7224 11.3992C26.8741 17.8656 31.8019 25.8939 29.8887 28.1436Z" fill="url(#paint2_radial_0_3)"/>
		<path opacity="0.12" d="M16.9141 38C21.5357 38 25.2822 37.5785 25.2822 37.0587C25.2822 36.5388 21.5357 36.1174 16.9141 36.1174C12.2925 36.1174 8.5459 36.5388 8.5459 37.0587C8.5459 37.5785 12.2925 38 16.9141 38Z" fill="white"/>
		<path d="M33.3295 3.34154L31.0492 3.99677C30.8857 4.04377 30.7576 4.17182 30.7106 4.33529L30.0554 6.61565C30.0486 6.64017 30.0139 6.64017 30.0064 6.61565L29.3511 4.33529C29.3041 4.17182 29.1761 4.04377 29.0126 3.99677L26.7323 3.34154C26.7077 3.33473 26.7077 3.29999 26.7323 3.2925L29.0126 2.63727C29.1761 2.59027 29.3041 2.46222 29.3511 2.29876L30.0064 0.0183901C30.0132 -0.00613003 30.0479 -0.00613003 30.0554 0.0183901L30.7106 2.29876C30.7576 2.46222 30.8857 2.59027 31.0492 2.63727L33.3295 3.2925C33.354 3.29999 33.354 3.33473 33.3295 3.34154Z" fill="white"/>
		<path d="M5.23289 28.7995L3.56211 29.2796C3.44224 29.3144 3.34893 29.4077 3.31419 29.5276L2.834 31.1983C2.82856 31.216 2.80335 31.216 2.79791 31.1983L2.31772 29.5276C2.28298 29.4077 2.18967 29.3144 2.0698 29.2796L0.399024 28.7995C0.381315 28.794 0.381315 28.7688 0.399024 28.7634L2.0698 28.2832C2.18967 28.2484 2.28298 28.1551 2.31772 28.0352L2.79791 26.3645C2.80335 26.3468 2.82856 26.3468 2.834 26.3645L3.31419 28.0352C3.34893 28.1551 3.44224 28.2484 3.56211 28.2832L5.23289 28.7634C5.2506 28.7688 5.2506 28.7947 5.23289 28.7995Z" fill="white"/>
		<path d="M42.3491 10.8257C42.3491 10.5083 42.6059 10.2516 42.9233 10.2516H49.0465C52.8233 10.2516 54.4961 12.2493 54.4961 14.6325C54.4961 16.1868 53.8865 17.0995 53.2047 17.6362C52.8989 17.8766 52.905 18.3418 53.2258 18.5611C54.2148 19.2361 55.09 20.4083 55.09 22.2725C55.09 25.593 52.5931 27.4864 48.9246 27.4864H42.9233C42.6059 27.4864 42.3491 27.2297 42.3491 26.9123V10.8257ZM48.4417 17.0293C50.2521 17.0293 51.0871 16.4551 51.0871 14.9894C51.0871 13.5672 50.1165 12.927 48.6174 12.927H46.3697C46.0523 12.927 45.7956 13.1837 45.7956 13.5011V16.4551C45.7956 16.7725 46.0523 17.0293 46.3697 17.0293H48.4417ZM45.7962 24.2587C45.7962 24.576 46.053 24.8328 46.3704 24.8328H48.6664C50.2609 24.8328 51.5081 24.0652 51.5081 22.2787C51.5081 20.6004 50.5245 19.6891 48.4022 19.6891H46.3704C46.053 19.6891 45.7962 19.9458 45.7962 20.2632V24.2587Z" fill="white"/>
		<path d="M58.0695 15.0911L59.0551 15.0189C59.2451 15.0053 59.4018 14.8657 59.4386 14.6791L59.7764 12.9579C60.2797 10.5011 61.5977 9 63.6547 9C64.3603 9 64.9426 9.1621 65.4562 9.41071C65.6639 9.51151 65.7443 9.76695 65.6421 9.97395L65.3309 10.604C65.2308 10.8063 64.9883 10.8975 64.7833 10.8035C64.5033 10.6748 64.175 10.5794 63.7895 10.5794C62.68 10.5794 61.9859 11.4799 61.7026 12.9021L61.3852 14.4897C61.3327 14.7513 61.533 14.9951 61.7993 14.9951H63.2433C63.5103 14.9951 63.7105 15.2396 63.6574 15.5019L63.5116 16.2185C63.4714 16.4153 63.2984 16.5562 63.0975 16.5562H61.2953C61.0937 16.5562 60.92 16.6987 60.8812 16.8962L58.9005 26.8813C58.861 27.0788 58.688 27.2211 58.4864 27.2211H57.4225C57.1562 27.2211 56.9559 26.9774 57.0084 26.7157L58.9407 17.0602C58.9931 16.7987 58.7929 16.5549 58.5266 16.5549H57.9783C57.7119 16.5549 57.5124 16.3117 57.5641 16.0501L57.6874 15.4283C57.7228 15.2437 57.8802 15.1048 58.0695 15.0911Z" fill="url(#paint3_radial_0_3)"/>
		<path d="M63.4028 25.9339C63.4028 25.6533 63.4532 25.3093 63.5404 24.8911L66.5843 9.64227C66.6238 9.44475 66.7968 9.3024 66.9984 9.3024H68.063C68.3293 9.3024 68.5295 9.54623 68.4771 9.80715L65.4482 24.9783C65.3978 25.2296 65.3978 25.3624 65.3978 25.4721C65.3978 25.7752 65.5538 25.9264 65.8058 25.9264H65.8092C66.0401 25.9264 66.2281 26.1122 66.2294 26.3431L66.2328 27.0072C66.2342 27.1979 66.1075 27.3682 65.9229 27.4172C65.6757 27.4826 65.3937 27.5249 65.03 27.5249C63.9531 27.5242 63.4028 26.9446 63.4028 25.9339Z" fill="url(#paint4_radial_0_3)"/>
		<path d="M70.3945 14.9958H71.4585C71.7255 14.9958 71.9255 15.2396 71.8735 15.5012L69.5905 26.8834C69.5515 27.0809 69.3774 27.2225 69.1765 27.2225H68.1119C67.8456 27.2225 67.6454 26.9786 67.6978 26.7171L69.9805 15.335C70.0195 15.1375 70.1925 14.9958 70.3945 14.9958ZM70.4425 11.3335C70.4425 10.5079 71.1175 9.86435 71.9035 9.86435C72.5465 9.86435 73.1265 10.2955 73.1265 11.0264C73.1265 11.8572 72.4515 12.4634 71.6655 12.4634C71.0225 12.4634 70.4425 12.0507 70.4425 11.3335Z" fill="url(#paint5_radial_0_3)"/>
		<path d="M72.6435 28.3715L71.9455 32.0373C71.9075 32.2369 71.7335 32.3806 71.5315 32.3806H70.4695C70.2035 32.3806 70.0035 32.1366 70.0555 31.8751L73.3705 15.3349C73.4105 15.1374 73.5835 14.9957 73.7845 14.9957H74.5595C74.8085 14.9957 75.0035 15.2104 74.9795 15.4583L74.8695 16.6087H74.9525C76.1865 15.5707 77.6395 14.694 79.1645 14.694C81.3155 14.694 82.6865 16.2749 82.6865 19.1315C82.6865 23.8155 79.4665 27.5248 76.0915 27.5248C74.8175 27.5248 73.7845 26.7994 73.1545 25.7533H73.1035L72.6435 28.3715ZM74.6775 18.4408L73.5595 24.0001C73.5385 24.1009 73.5555 24.2079 73.6075 24.2964C74.2885 25.4509 75.1005 25.9072 76.0125 25.9072C78.4565 25.9072 80.7045 22.8006 80.7045 19.4114C80.7045 17.3245 79.8395 16.3104 78.4665 16.3104C77.3625 16.3104 75.9155 17.0222 74.7825 18.2339C74.7285 18.2917 74.6925 18.3638 74.6775 18.4408Z" fill="url(#paint6_radial_0_3)"/>
		<path opacity="0.3" d="M24.3776 22.0545L24.3748 22.0572C18.5493 16.5381 8.98712 10.3305 5.07617 8.91715C5.25054 8.70192 5.43035 8.48873 5.61561 8.27826C5.86831 7.99152 6.13394 7.70681 6.40911 7.43096C6.42001 7.42006 6.42886 7.41121 6.4384 7.40167C7.20125 7.72043 8.02403 8.13932 8.88836 8.63926C11.4167 10.0989 14.3053 12.2553 17.1339 14.663C18.7509 16.0396 20.3426 17.5598 21.7709 19.0725C22.7272 20.084 23.6106 21.0941 24.3776 22.0545Z" fill="#0E072D"/>
	</g>
	<defs>
		<radialGradient id="paint0_radial_0_3" cx="0" cy="0" r="1" gradientUnits="userSpaceOnUse" gradientTransform="translate(24.7564 3.65493) scale(38.2325)">
			<stop offset="2.55734e-07" stop-color="#FBD640"/>
			<stop offset="1" stop-color="#FF8901"/>
		</radialGradient>
		<radialGradient id="paint1_radial_0_3" cx="0" cy="0" r="1" gradientUnits="userSpaceOnUse" gradientTransform="translate(24.7557 3.65497) scale(38.232)">
			<stop offset="2.55734e-07" stop-color="#FBD640"/>
			<stop offset="1" stop-color="#FF8901"/>
		</radialGradient>
		<radialGradient id="paint2_radial_0_3" cx="0" cy="0" r="1" gradientUnits="userSpaceOnUse" gradientTransform="translate(24.756 3.65499) scale(38.232 38.232)">
			<stop offset="2.55734e-07" stop-color="#FBD640"/>
			<stop offset="1" stop-color="#FF8901"/>
		</radialGradient>
		<radialGradient id="paint3_radial_0_3" cx="0" cy="0" r="1" gradientUnits="userSpaceOnUse" gradientTransform="translate(53.7163 10.7093) scale(39.7585 39.7585)">
			<stop offset="2.55734e-07" stop-color="#FBD640"/>
			<stop offset="1" stop-color="#FF8901"/>
		</radialGradient>
		<radialGradient id="paint4_radial_0_3" cx="0" cy="0" r="1" gradientUnits="userSpaceOnUse" gradientTransform="translate(53.7164 10.7093) scale(39.7585 39.7585)">
			<stop offset="2.55734e-07" stop-color="#FBD640"/>
			<stop offset="1" stop-color="#FF8901"/>
		</radialGradient>
		<radialGradient id="paint5_radial_0_3" cx="0" cy="0" r="1" gradientUnits="userSpaceOnUse" gradientTransform="translate(53.7163 10.7095) scale(39.7585 39.7585)">
			<stop offset="2.55734e-07" stop-color="#FBD640"/>
			<stop offset="1" stop-color="#FF8901"/>
		</radialGradient>
		<radialGradient id="paint6_radial_0_3" cx="0" cy="0" r="1" gradientUnits="userSpaceOnUse" gradientTransform="translate(53.7162 10.7093) scale(39.7585 39.7585)">
			<stop offset="2.55734e-07" stop-color="#FBD640"/>
			<stop offset="1" stop-color="#FF8901"/>
		</radialGradient>
		<clipPath id="clip0_0_3">
			<rect width="114" height="38" fill="white"/>
		</clipPath>
	</defs>
</svg>
